<svg xmlns="http://www.w3.org/2000/svg" xmlns:xlink="http://www.w3.org/1999/xlink" viewBox="0 0 498.1 192.62"><defs><style>.cls-1{fill:none;}.cls-2{fill:#485156;}.cls-3{clip-path:url(#clip-path);}.cls-4{fill:#0095db;fill-rule:evenodd;}.cls-5{fill:#fff;}</style><clipPath id="clip-path"><rect class="cls-1" width="498.1" height="192.62"/></clipPath></defs><g id="Camada_2" data-name="Camada 2"><g id="Camada_1-2" data-name="Camada 1"><polygon class="cls-2" points="211.13 27.44 195.24 27.44 195.24 18.1 237.77 18.1 237.77 27.44 221.89 27.44 221.89 74.13 211.13 74.13 211.13 27.44"/><g class="cls-3"><path class="cls-2" d="M245,18.1h34.84v9.34H255.8V41H278v9.34H255.8V64.79h24.08v9.34H245Zm11.87-9.34a132.23,132.23,0,0,0,11.36-7.48l4,6.22a81,81,0,0,1-11.61,7Z"/><path class="cls-2" d="M288.42,33.5c0-10.27,6.07-16.24,20.24-16.24a65.16,65.16,0,0,1,15.46,1.85l-1.19,9.17A85.31,85.31,0,0,0,309,26.85c-7.44,0-9.83,2.52-9.83,8.5V56.88c0,6,2.39,8.5,9.83,8.5A85.31,85.31,0,0,0,322.93,64l1.19,9.17A65.16,65.16,0,0,1,308.66,75c-14.17,0-20.24-6-20.24-16.24Z"/><polygon class="cls-2" points="343.6 31.65 343.6 74.13 333.09 74.13 333.09 18.1 347.44 18.1 369.05 60.67 369.05 18.1 379.56 18.1 379.56 74.13 365.2 74.13 343.6 31.65"/><rect class="cls-2" x="391.51" y="18.1" width="10.76" height="56.02"/><path class="cls-2" d="M413,33.5c0-10.27,6.06-16.24,20.24-16.24a65.22,65.22,0,0,1,15.46,1.85l-1.2,9.17a85.2,85.2,0,0,0-13.92-1.43c-7.43,0-9.82,2.52-9.82,8.5V56.88c0,6,2.39,8.5,9.82,8.5A85.2,85.2,0,0,0,447.45,64l1.2,9.17A65.22,65.22,0,0,1,433.19,75C419,75,413,69,413,58.73Z"/><path class="cls-2" d="M498.1,57.72c0,9.34-5.46,17.25-21.52,17.25s-21.53-7.91-21.53-17.25V34.51c0-9.34,5.47-17.25,21.53-17.25s21.52,7.91,21.52,17.25Zm-32.28-.58c0,5.3,2.73,8.49,10.76,8.49s10.76-3.19,10.76-8.49v-22c0-5.29-2.73-8.49-10.76-8.49s-10.76,3.2-10.76,8.49Z"/><polygon class="cls-2" points="215.93 140.4 241.55 140.4 241.55 144.86 210.89 144.86 210.89 88.83 215.93 88.83 215.93 140.4"/><rect class="cls-2" x="252.99" y="88.83" width="5.04" height="56.03"/><path class="cls-2" d="M288.1,145.7A48.39,48.39,0,0,1,272,143l.94-4a54.43,54.43,0,0,0,15.29,2.27c9.73,0,12.38-2.86,12.38-10,0-8.67-.08-9.59-12.73-12.45-13.75-3.11-15.28-5.55-15.28-16.82,0-9.18,3.41-14,17.68-14A59.88,59.88,0,0,1,305,89.92l-.6,4.21a69.64,69.64,0,0,0-13.92-1.68c-11.28,0-12.81,2.69-12.81,9.67,0,9.09.25,9.51,12.21,12.45,14.95,3.7,15.8,5.81,15.8,16.41,0,9.16-3.16,14.72-17.59,14.72"/><path class="cls-2" d="M319.27,144.86v-56h21.35c7.69,0,12.22,3.62,12.22,11v6.73c0,4.46-1.88,7.4-6.49,9.09,4.44.59,8.28,4.2,8.28,10.43v7.32c0,7.74-5.72,11.44-13.07,11.44ZM347.8,99.18c0-3.87-2.22-6-7.09-6h-16.4V114H339c6.23,0,8.8-3.19,8.8-7.65Zm1.79,27.09c0-4.72-2.82-7.91-9.39-7.91H324.31v22.12h17.34c5.38,0,7.94-2.61,7.94-7.06Z"/><path class="cls-2" d="M385.12,145.7c-14.61,0-19.9-7.07-19.9-16.66V104.65c0-9.59,5.29-16.66,19.9-16.66S405,95.06,405,104.65V129c0,9.59-5.29,16.66-19.9,16.66M400,128.87V104.81c0-8-3.93-12.36-14.86-12.36s-14.86,4.37-14.86,12.36v24.06c0,8,3.93,12.37,14.86,12.37S400,136.86,400,128.87"/><path class="cls-2" d="M449.78,130.13H423.3L418,144.86h-4.95l19.81-56h7.44l19.81,56h-4.95Zm-24.94-4.28h23.4l-11.7-34.16Z"/><path class="cls-4" d="M79.48,192.62S0,153.63,0,80.84V0H159.26V80.84c0,72.79-79.78,111.78-79.78,111.78"/><polygon class="cls-5" points="122.02 60.82 115.39 60.82 115.39 110.67 101.04 110.67 101.04 60.82 94.42 60.82 94.42 50.82 122.02 50.82 122.02 60.82"/><polygon class="cls-5" points="57.96 110.64 43.61 110.64 43.63 50.82 57.94 50.82 57.96 110.64"/><path class="cls-5" d="M93.81,16.93c-11.87,0-21.49,6.15-21.49,18v91.62c0,10.06,0,15-7.14,15-6.64,0-7.23-5-7.23-12.29h0a7.17,7.17,0,0,0-14.33,0h0c0,10.09,9.7,15.28,21.57,15.28s21.49-6.16,21.49-18V35c0-10.05,0-15,7.14-15,6.65,0,7.23,5,7.23,12.29h0a7.16,7.16,0,0,0,14.32,0h0c0-10.09-9.71-15.27-21.58-15.27"/></g></g></g></svg>